<?xml version="1.0" ?><svg xmlns="http://www.w3.org/2000/svg" xmlns:xlink="http://www.w3.org/1999/xlink" version="1.1" viewBox="0 0 512 512" style="enable-background:new 0 0 512 512;" xml:space="preserve"><g id="_x32_9_Herbal_Medicine"><g><linearGradient id="SVGID_1_" gradientUnits="userSpaceOnUse" x1="282.3356" y1="-163.9059" x2="229.2504" y2="823.4789"><stop offset="0" style="stop-color:#EAE9FE"/><stop offset="0.4236" style="stop-color:#EEEEFE"/><stop offset="0.8967" style="stop-color:#FBFBFF"/><stop offset="1" style="stop-color:#FFFFFF"/></linearGradient><path style="fill:url(#SVGID_1_);" d="M449.506,263.524c-8.638-6.722-19.071-12.513-23.089-22.694    c-5.464-13.845,3.27-28.704,8.42-42.669c15.726-42.64-4.457-93.136-40.669-120.598c-69.082-52.39-203.931-34.026-222.774,38.385    c-7.971,30.632,6.31,65.58-8.302,93.657c-18.437,35.427-67.345,37.817-98.845,53.57c-39.025,19.517-46.833,62.014-18.845,94.368    c10.278,11.881,23.429,20.066,32.854,33.047c13.639,18.783,21.288,39.553,39.536,55.046c25.696,21.817,68.658,27.226,91.407,2.351    c12.81-14.007,16.978-34.645,30.961-47.482c18.406-16.898,47.498-14.625,70.92-5.923c23.422,8.702,45.145,22.753,69.815,26.712    c38.573,6.191,79.932-16.442,95.512-52.268S480.339,287.516,449.506,263.524z"/><path style="fill:#F9BB40;" d="M433.603,155.257c0,5.709-1.854,11.466-5.66,16.248l-67.236,85.386L267.57,231.75l123.534-97.083    c10.442-8.246,25.372-7.367,34.789,2.049C430.968,141.791,433.603,148.524,433.603,155.257z"/><path style="fill:#EDEDED;" d="M319.678,404.949v20.268c0,10.354-8.408,18.825-18.825,18.825H193.737    c-10.354,0-18.825-8.472-18.825-18.825v-20.268H319.678z"/><path style="fill:#2769FD;" d="M397.916,266.215v31.925c0,24.404-8.024,47.47-21.73,66.191    c-13.705,18.72-33.262,33.262-56.495,40.617h-144.75c-46.466-14.709-78.225-58-78.225-106.807v-31.925H397.916z"/><path style="fill:#EDEDED;" d="M415.263,236.484v15.393c0,7.908-6.411,14.319-14.319,14.319H93.689    c-7.908,0-14.319-6.411-14.319-14.319v-15.393c0-7.908,6.411-14.319,14.319-14.319h307.256    C408.853,222.165,415.263,228.576,415.263,236.484z"/><path style="fill:#FF5859;" d="M235.39,115.773l-41.219,41.15c-2.684,2.684-7.019,2.684-9.703,0l-28.832-28.832    c-7.087-7.087-10.528-16.24-10.597-25.46c0.069-8.67,3.097-17.341,9.358-24.222c13.969-15.345,38.604-14.726,53.33-0.069    l27.663,27.663C238.074,108.686,238.074,113.09,235.39,115.773z"/><path style="fill:#EDEDED;" d="M349.55,102.63c-0.069,9.221-3.578,18.373-10.597,25.46l-28.901,28.832    c-2.683,2.684-7.019,2.684-9.702,0l-41.15-41.15c-2.684-2.684-2.684-7.087,0-9.771l27.662-27.663    c14.657-14.657,39.292-15.276,53.26,0.069C346.385,85.29,349.481,93.96,349.55,102.63z"/><path style="fill:#386E93;" d="M247.332,151.957c0,5.509-4.457,9.904-9.904,9.904c-5.509,0-9.966-4.395-9.966-9.904    c0-5.447,4.457-9.904,9.966-9.904C242.875,142.053,247.332,146.51,247.332,151.957z"/><path style="fill:#386E93;" d="M233.88,183.944c0,5.013-4.056,9.013-9.013,9.013c-5.014,0-9.069-4-9.069-9.013    c0-4.957,4.056-9.013,9.069-9.013C229.823,174.931,233.88,178.987,233.88,183.944z"/><path style="fill:#386E93;" d="M278.778,174.931c0,5.75-4.652,10.337-10.338,10.337c-5.75,0-10.402-4.587-10.402-10.337    c0-5.686,4.652-10.338,10.402-10.338C274.126,164.593,278.778,169.245,278.778,174.931z"/><path style="fill:#332E8E;" d="M75.579,236.484v15.394c0,9.727,7.716,17.665,17.348,18.069v28.192    c0,49.788,31.312,93.433,78.195,109.515v17.565c0,12.47,10.144,22.615,22.615,22.615h107.115c12.47,0,22.615-10.144,22.615-22.615    v-17.549c22.429-7.686,41.677-21.84,55.775-41.103c14.696-20.069,22.464-43.732,22.464-68.428v-28.192    c9.632-0.404,17.348-8.342,17.348-18.069v-15.394c0-9.984-8.124-18.107-18.11-18.107h-5.085l35.051-44.512    c9.496-11.933,8.404-29.087-2.336-39.827c-10.763-10.763-27.879-11.772-39.809-2.35l-110.31,86.689H93.689    C83.703,218.376,75.579,226.5,75.579,236.484z M315.888,425.218c0,8.291-6.745,15.036-15.036,15.036H193.737    c-8.291,0-15.036-6.745-15.036-15.036v-16.479h137.187V425.218z M394.127,298.138c0,23.076-7.263,45.19-20.999,63.953    c-13.578,18.549-32.248,32.046-54.026,39.067H175.53c-44.899-14.474-75.025-55.8-75.025-103.02v-28.133h293.622V298.138z     M411.475,236.484v15.394c0,5.805-4.724,10.529-10.531,10.529H93.689c-5.807,0-10.531-4.724-10.531-10.529v-15.394    c0-5.805,4.724-10.529,10.531-10.529h307.254C406.751,225.955,411.475,230.679,411.475,236.484z M393.454,137.64    c8.923-7.046,21.717-6.29,29.761,1.755c8.048,8.048,8.843,20.855,1.752,29.765l-38.754,49.216h-95.494L393.454,137.64z"/><path style="fill:#332E8E;" d="M210.401,75.654c-16.152-16.079-43.285-16.848-58.805,0.204    c-14.044,15.435-13.903,39.647,1.362,54.912l28.831,28.833c4.148,4.148,10.904,4.156,15.058,0.002l41.22-41.15    c0-0.001,0.002-0.001,0.002-0.002c4.172-4.172,4.172-10.958,0-15.13L210.401,75.654z M232.714,113.092l-41.223,41.153    c-1.164,1.168-3.18,1.163-4.344,0l-28.831-28.833c-12.322-12.322-12.527-31.911-1.115-44.452    c12.541-13.78,34.698-13.029,47.847,0.059l27.664,27.662C233.915,109.884,233.918,111.886,232.714,113.092z"/><path style="fill:#332E8E;" d="M312.728,159.606l28.918-28.849c14.993-15.137,15.678-39.078,1.28-54.9    c-15.569-17.1-42.711-16.232-58.743-0.197l-27.662,27.662c-4.172,4.172-4.172,10.958,0,15.13l41.149,41.15    C301.835,163.771,308.572,163.767,312.728,159.606z M261.879,108.681l27.662-27.662c12.972-12.975,35.135-13.948,47.78-0.059    c11.487,12.624,11.261,32.026-1.044,44.448l-28.908,28.837c-1.159,1.166-3.177,1.162-4.342-0.001l-41.149-41.15    C260.676,111.891,260.672,109.888,261.879,108.681z"/><path style="fill:#332E8E;" d="M251.12,151.957c0-7.551-6.143-13.694-13.692-13.694c-7.586,0-13.756,6.143-13.756,13.694    c0,7.55,6.17,13.693,13.756,13.693C244.978,165.65,251.12,159.508,251.12,151.957z M237.429,158.072    c-3.407,0-6.177-2.743-6.177-6.114c0-3.372,2.77-6.116,6.177-6.116c3.37,0,6.113,2.743,6.113,6.116    C243.542,155.329,240.799,158.072,237.429,158.072z"/><path style="fill:#332E8E;" d="M224.867,171.142c-7.09,0-12.86,5.743-12.86,12.802s5.77,12.802,12.86,12.802    c7.058,0,12.801-5.743,12.801-12.802S231.925,171.142,224.867,171.142z M224.867,189.168c-2.963,0-5.282-2.294-5.282-5.224    c0-2.88,2.368-5.224,5.282-5.224c2.879,0,5.223,2.344,5.223,5.224S227.746,189.168,224.867,189.168z"/><path style="fill:#332E8E;" d="M254.248,174.931c0,7.789,6.367,14.126,14.192,14.126c7.788,0,14.126-6.336,14.126-14.126    s-6.338-14.127-14.126-14.127C260.616,160.804,254.248,167.142,254.248,174.931z M274.988,174.931c0,3.61-2.938,6.547-6.547,6.547    c-3.646,0-6.614-2.937-6.614-6.547s2.968-6.549,6.614-6.549C272.05,168.382,274.988,171.321,274.988,174.931z"/></g></g><g id="Layer_1"/></svg>